<?xml version="1.0" encoding="UTF-8" standalone="no"?>
<!-- Created with Inkscape (http://www.inkscape.org/) -->

<svg
   xmlns:dc="http://purl.org/dc/elements/1.1/"
   xmlns:cc="http://creativecommons.org/ns#"
   xmlns:rdf="http://www.w3.org/1999/02/22-rdf-syntax-ns#"
   xmlns:svg="http://www.w3.org/2000/svg"
   xmlns="http://www.w3.org/2000/svg"
   xmlns:sodipodi="http://sodipodi.sourceforge.net/DTD/sodipodi-0.dtd"
   xmlns:inkscape="http://www.inkscape.org/namespaces/inkscape"
   version="1.1"
   id="svg2"
   xml:space="preserve"
   width="1086.236"
   height="846.23602"
   viewBox="0 0 1086.236 846.23602"
   sodipodi:docname="Flisol-Negativo-v3-negro.svg"
   inkscape:version="0.92.3 (2405546, 2018-03-11)"><metadata
     id="metadata8"><rdf:RDF><cc:Work
         rdf:about=""><dc:format>image/svg+xml</dc:format><dc:type
           rdf:resource="http://purl.org/dc/dcmitype/StillImage" /><dc:title></dc:title></cc:Work></rdf:RDF></metadata><defs
     id="defs6"><clipPath
       clipPathUnits="userSpaceOnUse"
       id="clipPath18"><path
         d="M 0,634.677 H 814.677 V 0 H 0 Z"
         id="path16"
         inkscape:connector-curvature="0" /></clipPath></defs><sodipodi:namedview
     pagecolor="#ffffff"
     bordercolor="#666666"
     borderopacity="1"
     objecttolerance="10"
     gridtolerance="10"
     guidetolerance="10"
     inkscape:pageopacity="0"
     inkscape:pageshadow="2"
     inkscape:window-width="640"
     inkscape:window-height="480"
     id="namedview4"
     showgrid="false"
     inkscape:zoom="0.27888201"
     inkscape:cx="543.11798"
     inkscape:cy="423.11801"
     inkscape:window-x="0"
     inkscape:window-y="0"
     inkscape:window-maximized="0"
     inkscape:current-layer="g10" /><g
     id="g10"
     inkscape:groupmode="layer"
     inkscape:label="Flisol-Negativo-v3-negro"
     transform="matrix(1.3333333,0,0,-1.3333333,0,846.236)"><g
       id="g12"><g
         id="g14"
         clip-path="url(#clipPath18)"><g
           id="g20"
           transform="translate(420.8719,191.2644)"><path
             d="m 0,0 c -1.94,3.797 -1.848,7.646 -0.284,11.528 0.201,0.498 0.337,1.246 0.711,1.414 1.654,0.742 0.552,1.535 0.435,2.594 -0.36,3.248 -0.958,6.795 -0.029,9.78 1.237,3.972 3.836,7.518 5.818,11.264 0.292,0.553 0.517,1.187 0.587,1.804 0.53,4.65 1.046,9.302 1.489,13.961 0.132,1.403 0.02,2.829 0.02,4.514 1.238,0 2.178,-0.007 3.118,10e-4 7.113,0.07 14.266,-0.309 21.33,0.313 12.383,1.091 21.888,10.06 24.385,22.256 0.334,1.632 0.571,3.315 0.579,4.976 0.05,11.28 0.194,22.562 -0.022,33.836 -0.203,10.566 -4.046,19.317 -13.843,24.552 -4.306,2.301 -8.981,3.228 -13.841,3.231 -12.799,0.009 -25.599,0.003 -38.397,0.003 h -2.8 v 12.769 h 64.142 v 40.602 h -88.396 c 1.594,3.664 3.023,6.95 4.718,10.844 2.326,0.316 3.914,2.606 4.957,5.41 0.798,2.144 2.254,3.537 4.295,4.569 1.278,0.646 2.297,1.805 3.431,2.734 -0.252,0.106 -0.503,0.211 -0.754,0.316 -0.119,1.252 -0.23,2.506 -0.361,3.758 -0.064,0.628 -0.218,1.251 -0.237,1.879 -0.053,1.691 0.044,3.393 -0.109,5.073 -0.122,1.338 -0.236,2.814 -0.872,3.934 -0.869,1.533 -2.677,4.756 -3.163,6.807 -0.425,1.791 -3.385,3.189 -4.958,2.209 -1.463,-0.911 -2.783,-2.051 -4.344,-3.222 1.324,-1.187 2.272,-2.552 0.615,-3.413 -1.004,-0.522 -2.615,-0.131 -3.867,0.185 -0.668,0.169 -1.272,0.975 -1.705,1.625 -1.297,1.954 -2.892,2.501 -5.297,2.228 -1.211,-0.137 -3.294,1.047 -3.786,2.161 -1.37,3.104 -4.139,4.276 -6.429,5.86 -0.719,-0.418 -1.547,-1.184 -1.84,-1.016 -0.748,0.429 -1.857,1.367 -1.768,1.937 0.769,4.915 -2.595,7.333 -5.635,10.061 -1.043,0.935 -1.97,2.165 -2.516,3.446 -0.59,1.387 -1.305,1.696 -2.557,1.146 -2.303,-1.013 -4.276,-0.138 -6.382,0.809 -2.359,1.063 -4.845,1.949 -7.366,2.524 -3.162,0.722 -5.838,2.107 -7.966,4.521 -2.183,2.475 -4.474,4.667 -7.821,5.638 -1.977,0.574 -3.62,0.653 -5.023,-0.904 -1.869,-2.072 -3.839,-2.34 -6.108,-0.69 -0.432,0.314 -1.043,0.638 -1.529,0.584 -4.027,-0.449 -6.885,2.062 -10.104,3.757 -1.322,0.696 -2.993,0.694 -4.45,1.176 -1.456,0.481 -2.873,1.111 -4.254,1.782 -1.891,0.92 -3.743,1.922 -5.594,2.922 -4.092,2.211 -8.173,4.443 -12.645,6.877 -4.031,-3.305 -8.529,-6.993 -13.063,-10.711 4.872,8.195 39.341,31.206 62.139,41.085 23.115,10.016 47.336,15.632 72.502,17.077 25.258,1.451 50.065,-1.212 74.35,-8.364 C 143.253,308.403 207.732,221.851 206.54,123.441 205.28,19.418 132.347,-66.127 36.158,-87.655 c -96.872,-21.681 -187.212,23.867 -231.224,95.316 0.415,-0.537 0.852,-1.057 1.241,-1.612 31.001,-44.192 72.307,-73.818 124.548,-87.846 21.598,-5.8 43.652,-7.914 65.974,-6.761 34.552,1.786 66.828,11.413 96.802,28.682 14.883,8.574 28.471,18.88 40.873,30.781 22.827,21.907 40.078,47.521 51.684,76.958 5.755,14.6 9.519,29.71 12.214,45.142 2.723,15.605 2.814,31.293 1.998,47.033 -0.302,5.821 0.135,11.797 -1.042,17.437 -4.323,20.686 -9.655,41.093 -18.909,60.276 -22.51,46.661 -57.17,81.128 -103.88,103.384 -20.297,9.671 -41.747,15.637 -64.083,18.428 -18.091,2.26 -36.144,2.291 -54.242,0.013 -23.875,-3.006 -46.59,-9.778 -68.225,-20.279 -1.387,-0.673 -1.589,-1.511 -1.811,-2.899 -0.632,-3.953 1.354,-7.407 1.808,-11.138 0.12,-0.985 1.109,-1.9 1.795,-2.771 1.725,-2.194 3.353,-4.496 5.311,-6.464 1.531,-1.538 3.514,-2.622 5.272,-3.939 2.215,-1.658 4.059,0.063 6.023,0.632 2.135,0.618 4.183,1.465 6.492,0.341 0.498,-0.243 2.051,0.539 2.332,1.188 1.339,3.101 3.776,5.571 4.335,9.199 0.465,3.015 3.618,3.944 6.358,4.201 3.132,0.295 6.313,0.069 9.945,0.069 -0.137,-1.713 -0.058,-2.808 -0.335,-3.803 -0.824,-2.964 -1.718,-5.914 -2.734,-8.817 -0.408,-1.162 -0.47,-3.047 -2.878,-2.247 0,-2.124 -0.083,-4.187 0.026,-6.24 0.086,-1.599 -0.423,-2.713 -1.732,-3.67 -0.555,-0.405 -1.153,-1.615 -0.931,-2.016 0.323,-0.583 1.382,-1.091 2.106,-1.064 3.75,0.142 7.546,0.16 11.224,0.805 4.308,0.755 7.596,-1.067 10.86,-3.278 0.343,-0.233 0.523,-0.959 0.498,-1.441 -0.124,-2.307 -0.411,-4.606 -0.516,-6.913 -0.187,-4.053 -0.622,-8.141 -0.239,-12.147 0.14,-1.476 2.238,-2.824 3.559,-4.111 1.279,-1.246 2.607,-2.497 4.102,-3.447 1.09,-0.693 2.528,-1.33 3.736,-1.215 1.517,0.144 3.03,0.95 4.418,1.703 3.89,2.11 7.348,1.504 10.58,-1.345 1.232,-1.086 2.53,-2.097 3.622,-2.999 1.826,1.86 3.463,3.397 4.925,5.086 0.531,0.614 0.787,1.566 0.925,2.404 0.437,2.656 1.851,4.277 4.497,4.967 2.541,0.663 5.088,1.382 7.52,2.356 2.016,0.806 3.825,2.12 5.815,3.007 0.865,0.385 2.276,0.71 2.877,0.279 1.224,-0.879 0.73,-1.966 -0.154,-3.238 -1.956,-2.809 -2.694,-6.046 -1.482,-9.399 0.267,-0.737 1.249,-1.215 1.902,-1.813 0.439,0.944 1.151,1.867 1.229,2.839 0.06,0.751 -0.665,1.571 -1.064,2.349 -1.246,2.429 -0.794,3.676 1.711,4.581 0.82,0.296 1.659,0.584 2.513,0.722 0.743,0.12 1.522,0.025 2.848,0.025 -1.297,1.068 -2.124,1.75 -3.32,2.735 2.018,0.372 3.233,0.529 4.207,-1.081 0.477,-0.789 1.615,-1.248 2.536,-1.682 1.564,-0.736 3.614,-0.683 4.101,-3.011 0.078,-0.375 1.184,-0.71 1.835,-0.755 1.593,-0.11 3.197,-0.028 4.797,-0.045 1.464,-0.017 2.726,-0.049 4.102,-1.167 1.805,-1.467 4.468,-1.003 6.022,0.416 2.895,2.642 6.002,1.729 9.274,1.241 -0.565,-0.21 -1.13,-0.42 -2.035,-0.755 0.552,-0.732 0.94,-1.511 1.558,-1.997 0.671,-0.525 1.521,-0.941 2.354,-1.119 3.258,-0.697 5.784,-1.999 5.328,-6.128 5.453,0.676 8.029,-2.874 11.146,-6.195 2.149,-2.288 4.362,-5.222 8.202,-5.408 3.101,-0.15 6.256,-0.279 9.265,-0.957 4.042,-0.911 8.349,-1.321 11.617,-4.408 1.215,-1.147 2.625,-2.088 3.844,-3.232 0.523,-0.491 0.886,-1.221 1.152,-1.909 1.275,-3.279 1.498,-7.072 4.836,-9.336 0.332,-0.226 0.255,-1.54 -0.06,-2.114 -0.401,-0.728 -1.244,-1.211 -1.887,-1.808 -0.88,-0.816 -1.804,-1.591 -2.616,-2.468 -2.966,-3.198 -2.429,-5.323 1.659,-6.741 0.15,-0.166 0.301,-0.332 0.451,-0.499 0.318,-2.017 1.289,-3.094 3.537,-2.82 0.535,0.066 1.171,-0.69 2.251,-1.384 -6.945,-2.701 -12.617,-6.021 -17.524,-10.601 -10.351,-9.661 -15.758,-21.615 -15.999,-35.695 -0.257,-14.955 -0.399,-29.928 0.028,-44.875 0.532,-18.678 9.211,-32.846 25.285,-42.432 1.011,-0.602 2.053,-1.153 3.642,-2.042 -1.769,-1.934 -3.122,-3.963 -4.97,-5.318 -3.554,-2.609 -5.933,-5.969 -7.68,-9.912 -0.58,-1.31 -1.246,-2.598 -2.018,-3.803 -2.492,-3.886 -5.841,-5.135 -10.314,-3.851 -3.055,0.878 -6.071,1.896 -9.13,2.765 -0.922,0.262 -1.925,0.234 -2.891,0.339 -0.117,-0.228 -0.234,-0.455 -0.35,-0.684 0.596,-0.623 1.226,-1.218 1.78,-1.878 0.79,-0.938 1.813,-1.815 2.221,-2.911 0.723,-1.941 1.372,-3.651 3.068,-5.176 0.898,-0.807 0.898,-3.671 0.184,-5.009 -2.049,-3.839 -4.766,-7.152 -9.632,-7.807 -3.694,-0.497 -7.267,-1.604 -11.118,-0.846 -2.627,0.518 -3.882,-0.895 -4.08,-3.728 C 51.694,11.564 51.676,9.564 51.381,7.607 50.925,4.588 48.737,3.284 45.804,4.233 44.449,4.672 43.208,5.458 41.856,5.911 39.609,6.665 38.364,5.577 38.96,3.281 c 0.374,-1.439 1.028,-2.872 1.872,-4.09 0.353,-0.508 1.514,-0.502 2.323,-0.637 0.754,-0.126 1.633,0.063 2.246,-0.272 0.293,-0.16 0.376,-1.515 0.069,-1.797 -0.61,-0.554 -1.574,-1.04 -2.359,-0.994 -0.871,0.052 -1.706,0.729 -2.927,0.839 0.454,-0.693 0.909,-1.387 1.056,-1.611 -1.01,-2.946 -2.231,-5.556 -2.751,-8.299 -0.488,-2.577 -1.737,-3.632 -4.173,-4.07 -1.336,-0.241 -2.783,-0.893 -3.776,-1.801 -2.792,-2.553 -2.208,-6.346 1.084,-8.201 0.485,-0.274 1.019,-0.461 1.518,-0.713 3.58,-1.814 3.939,-5.774 0.742,-8.277 -0.565,-0.441 -1.162,-0.856 -1.793,-1.193 -2.035,-1.088 -3.296,-2.599 -3.468,-5.043 -0.156,-2.211 -1.383,-3.611 -3.724,-4.032 -3.144,-0.565 -3.989,-3.189 -4.601,-5.778 -0.574,-2.428 -0.008,-4.442 2.309,-6.003 1.058,-0.713 2.01,-2.295 2.133,-3.569 0.712,-7.327 5.705,-10.608 11.747,-13.038 1.012,-0.407 1.982,-0.921 3.367,-1.571 -0.847,-0.355 -1.235,-0.578 -1.652,-0.681 -1.746,-0.43 -3.702,-0.463 -5.214,-1.303 -3.897,-2.164 -8.062,-2.325 -12.272,-2.088 -0.889,0.049 -2.132,1.175 -2.475,2.084 -0.771,2.05 -2.121,2.903 -4.116,3.513 -1.464,0.448 -2.703,1.634 -4.034,2.504 -0.118,0.077 -0.211,0.371 -0.253,0.359 -2.873,-0.882 -4.206,2.181 -6.645,2.561 -3.462,0.539 -5.118,3.56 -7.602,5.984 1.084,0.772 2.013,1.433 2.658,1.893 0,1.018 -0.225,1.911 0.043,2.618 0.762,2.018 0.448,3.683 -1.41,4.775 -2.073,1.216 -2.412,2.983 -2.627,5.219 -0.332,3.464 -1.141,6.902 -1.984,10.291 -0.569,2.29 -0.111,4.089 1.607,5.615 1.886,1.673 2.178,3.438 0.871,5.718 -0.751,1.311 -1.058,2.969 -1.185,4.501 -0.052,0.631 0.823,1.821 1.398,1.903 0.745,0.106 1.683,-0.54 2.404,-1.051 0.571,-0.403 0.942,-1.091 1.823,-2.168 2.012,9.173 3.87,17.643 5.879,26.806 C 2.802,1.258 1.36,0.668 -0.081,0.079 Z"
             style="fill:#1d1d1b;fill-opacity:1;fill-rule:nonzero;stroke:none"
             id="path22"
             inkscape:connector-curvature="0" /></g><g
           id="g24"
           transform="translate(581.7772,319.6516)"><path
             d="m 0,0 v 16.551 0.24 c -0.033,8.175 -5.381,15.167 -13.424,16.616 -4.191,0.756 -8.582,0.509 -12.883,0.531 -10.148,0.054 -17.795,-7.342 -17.933,-17.544 -0.151,-10.953 -0.121,-21.909 -0.008,-32.862 0.095,-9.125 6.025,-16.129 15.016,-17.387 4.238,-0.593 8.631,-0.602 12.91,-0.276 9.815,0.747 16.319,8.038 16.322,17.82 C 0.002,-10.875 0.001,-5.437 0,0 m -80.721,-0.014 v 22.069 c 0,22.028 16.224,41.756 37.875,45.894 3.272,0.625 6.646,0.906 9.98,0.971 7.273,0.143 14.552,0.045 21.828,0.044 C 12.669,68.96 32.52,52.031 36.22,28.601 c 0.347,-2.199 0.484,-4.452 0.491,-6.68 0.043,-14.153 0.022,-28.306 0.022,-42.46 -10e-4,-24.526 -16.106,-43.769 -40.273,-48.083 -1.568,-0.28 -3.172,-0.52 -4.758,-0.509 -10.064,0.068 -20.169,-0.321 -30.183,0.445 -19.298,1.476 -36.269,16.388 -40.752,35.253 -0.913,3.844 -1.302,7.872 -1.424,11.832 -0.223,7.189 -0.064,14.391 -0.064,21.587"
             style="fill:#1d1d1b;fill-opacity:1;fill-rule:nonzero;stroke:none"
             id="path26"
             inkscape:connector-curvature="0" /></g><g
           id="g28"
           transform="translate(372.4657,250.6208)"><path
             d="m 0,0 v 35.726 h 2.854 c 19.677,0 39.353,-0.011 59.03,0.021 1.42,0.003 2.883,0.155 4.251,0.521 2.578,0.689 3.827,2.351 3.928,5.053 0.085,2.318 0.056,4.639 0.044,6.958 -0.019,4.146 -1.991,6.167 -6.149,6.191 -6.799,0.038 -13.598,0.01 -20.396,0.01 -10.638,0 -21.277,-0.012 -31.915,0.005 -6.92,0.012 -11.218,4.251 -11.231,11.218 -0.038,20.316 -0.029,40.632 -0.007,60.949 0.008,7.369 3.642,10.967 11.096,11.005 8.158,0.041 16.317,0.009 24.475,0.009 h 60.709 2.915 V 102.137 H 35.522 V 84.235 h 2.535 c 13.757,0 27.514,0.009 41.272,-0.002 13.957,-0.012 24.049,-9.037 24.642,-23.044 0.539,-12.756 0.62,-25.58 -0.033,-38.326 C 103.297,10.314 92.353,0.033 79.805,-0.102 53.493,-0.383 27.176,-0.194 0.861,-0.191 0.637,-0.191 0.413,-0.095 0,0"
             style="fill:#1d1d1b;fill-opacity:1;fill-rule:nonzero;stroke:none"
             id="path30"
             inkscape:connector-curvature="0" /></g><g
           id="g32"
           transform="translate(637.827,387.5437)"><path
             d="m 0,0 h 38.283 v -2.914 c 0,-30.308 0,-60.616 0.002,-90.924 0,-0.959 0.055,-1.919 0.038,-2.877 -0.04,-2.324 1.128,-3.575 3.391,-3.824 0.95,-0.105 1.912,-0.143 2.868,-0.143 14.154,-0.008 28.309,-0.006 42.462,-0.006 h 2.041 v -35.964 h -2.708 c -25.43,0 -50.861,0.135 -76.289,-0.082 -7.73,-0.067 -10.079,4.935 -10.082,10.239 C -0.008,-104.424 0,-82.353 0,-60.281 v 57.576 z"
             style="fill:#1d1d1b;fill-opacity:1;fill-rule:nonzero;stroke:none"
             id="path34"
             inkscape:connector-curvature="0" /></g><g
           id="g36"
           transform="translate(287.3671,286.8552)"><path
             d="m 0,0 v -35.964 h -2.809 c -25.426,0 -50.854,-0.001 -76.281,0 -6.469,10e-4 -9.439,2.738 -10.052,9.264 -0.051,0.555 -0.046,1.118 -0.046,1.678 -0.002,41.178 -0.002,82.357 -0.002,123.536 v 2.094 h 38.335 V 97.79 c 0,-30.225 0,-60.449 10e-4,-90.674 0,-1.039 0.003,-2.079 0.032,-3.118 0.061,-2.226 1.09,-3.618 3.406,-3.839 0.872,-0.084 1.75,-0.151 2.626,-0.152 C -30.558,-0.002 -16.325,0 -2.093,0 Z"
             style="fill:#1d1d1b;fill-opacity:1;fill-rule:nonzero;stroke:none"
             id="path38"
             inkscape:connector-curvature="0" /></g><g
           id="g40"
           transform="translate(177.2841,387.656)"><path
             d="m 0,0 v -35.884 c -1.024,0 -1.948,0.002 -2.872,0 -14.397,-0.027 -28.793,-0.053 -43.189,-0.082 -3.753,-0.008 -4.651,-0.834 -4.912,-4.552 -0.055,-0.796 -0.018,-1.599 -0.018,-2.399 -10e-4,-30.153 -10e-4,-60.308 -10e-4,-90.461 v -3.231 h -38.07 c -0.046,0.8 -0.139,1.638 -0.139,2.475 -0.007,41.031 -0.015,82.064 0.02,123.095 0.002,1.735 0.197,3.528 0.66,5.193 1.147,4.108 3.618,5.845 7.907,5.845 C -54.619,0.001 -28.624,0 -2.63,0 Z"
             style="fill:#1d1d1b;fill-opacity:1;fill-rule:nonzero;stroke:none"
             id="path42"
             inkscape:connector-curvature="0" /></g><g
           id="g44"
           transform="translate(349.7098,251.0036)"><path
             d="m 0,0 h -38.283 v 2.765 c 0,30.382 0,60.764 -10e-4,91.147 0,0.799 0.033,1.602 -0.029,2.398 -0.265,3.42 -1.232,4.341 -4.627,4.372 -3.099,0.027 -6.199,0.006 -9.462,0.006 v 35.964 h 2.613 c 13.593,0 27.185,0.001 40.776,0 5.029,-10e-4 7.824,-2.369 8.625,-7.377 0.214,-1.334 0.371,-2.694 0.372,-4.043 C 0.004,84.376 0,43.52 0,2.663 Z"
             style="fill:#1d1d1b;fill-opacity:1;fill-rule:nonzero;stroke:none"
             id="path46"
             inkscape:connector-curvature="0" /></g><path
           d="M 176.574,305.147 H 130.961 V 336.6 h 45.613 z"
           style="fill:#1d1d1b;fill-opacity:1;fill-rule:nonzero;stroke:none"
           id="path48"
           inkscape:connector-curvature="0" /><g
           id="g50"
           transform="translate(368.8759,499.7121)"><path
             d="m 0,0 c 2.502,5.832 8.549,8.514 15.247,7.208 2.167,-0.422 4.241,-1.309 6.367,-1.953 2.045,-0.62 4.132,-1.118 6.145,-1.829 1.149,-0.406 2.192,-1.122 3.274,-1.715 2.344,-1.285 4.615,-2.728 7.044,-3.825 1.933,-0.872 4.168,-1.099 6.05,-2.048 1.258,-0.634 2.13,-2.031 3.417,-3.333 -5.246,-3.67 -10.451,-0.697 -16.111,-0.726 0.76,1.02 1.221,1.639 1.418,1.902 -2.228,1.771 -4.422,3.515 -6.618,5.258 -0.124,0.099 -0.246,0.239 -0.388,0.269 C 21.897,0.049 17.955,0.919 13.992,1.682 12.929,1.887 11.656,1.458 11.684,3.293 11.687,3.5 10.257,4.07 9.686,3.882 7.142,3.045 4.663,2.006 2.171,1.015 1.431,0.72 0.723,0.341 0,0"
             style="fill:#1d1d1b;fill-opacity:1;fill-rule:nonzero;stroke:none"
             id="path52"
             inkscape:connector-curvature="0" /></g><g
           id="g54"
           transform="translate(417.285,482.7024)"><path
             d="M 0,0 C -0.079,0.273 -0.343,1.179 -0.605,2.086 0.279,2.242 1.163,2.512 2.051,2.528 3.547,2.555 5.045,2.421 6.542,2.355 6.712,2.543 6.883,2.732 7.053,2.92 6.242,4.134 5.386,5.32 4.645,6.574 4.353,7.069 4.014,7.965 4.236,8.238 4.607,8.692 5.625,9.182 6.001,8.977 8.546,7.595 11.097,8.289 13.713,8.529 15.151,8.662 16.864,8.435 18.092,7.735 21.048,6.05 23.791,3.992 26.62,2.084 26.564,1.819 26.508,1.554 26.452,1.288 c -1.036,0 -2.088,0.11 -3.106,-0.027 -1.388,-0.186 -2.742,-0.737 -4.127,-0.815 -2.37,-0.133 -4.825,0.197 -6.31,-2.344 -0.041,-0.07 -1.141,0.447 -1.727,0.733 C 10.061,-0.618 8.978,0.374 7.838,0.437 5.495,0.568 3.125,0.209 0,0"
             style="fill:#1d1d1b;fill-opacity:1;fill-rule:nonzero;stroke:none"
             id="path56"
             inkscape:connector-curvature="0" /></g><g
           id="g58"
           transform="translate(526.4149,392.4778)"><path
             d="M 0,0 C -0.15,0.167 -0.301,0.333 -0.451,0.499 -2.118,2.01 -2.077,3.743 -0.844,5.402 0.468,7.167 2.023,6.781 3.809,5.853 5.054,5.206 6.269,3.789 8.063,4.664 8.119,4.691 9.417,3.07 9.226,2.562 7.76,-1.325 5.628,-3.223 1.67,-0.894 1.126,-0.574 0.558,-0.297 0,0"
             style="fill:#1d1d1b;fill-opacity:1;fill-rule:nonzero;stroke:none"
             id="path60"
             inkscape:connector-curvature="0" /></g><g
           id="g62"
           transform="translate(550.7723,391.5442)"><path
             d="m 0,0 c -5.98,-0.848 -11.785,-1.67 -17.603,-2.495 0.023,-0.16 -0.057,0.007 -0.005,0.1 4.211,7.597 6.041,8.186 13.844,4.415 C -2.485,1.401 -1.258,0.678 0,0"
             style="fill:#1d1d1b;fill-opacity:1;fill-rule:nonzero;stroke:none"
             id="path64"
             inkscape:connector-curvature="0" /></g><g
           id="g66"
           transform="translate(436.9022,302.5163)"><path
             d="M 0,0 C 2.259,0.101 3.235,-0.693 3.293,-3.104 3.345,-5.251 3.327,-7.4 3.301,-9.549 3.261,-12.787 2.102,-13.779 -1.196,-13.56 -0.806,-9.132 -0.414,-4.693 0,0"
             style="fill:#1d1d1b;fill-opacity:1;fill-rule:nonzero;stroke:none"
             id="path68"
             inkscape:connector-curvature="0" /></g><g
           id="g70"
           transform="translate(420.7909,191.3435)"><path
             d="m 0,0 c 0.14,-1.135 0.429,-2.276 0.387,-3.404 -0.068,-1.799 -0.355,-3.589 -0.566,-5.545 -1.93,-0.402 -3.073,0.499 -3.045,2.394 0.028,1.866 0.431,3.744 0.837,5.58 0.308,1.392 1.214,1.787 2.468,0.896 z"
             style="fill:#1d1d1b;fill-opacity:1;fill-rule:nonzero;stroke:none"
             id="path72"
             inkscape:connector-curvature="0" /></g><g
           id="g74"
           transform="translate(406.8407,481.9612)"><path
             d="M 0,0 C -1.764,-0.274 -3.555,-0.852 -5.282,-0.703 -6.235,-0.62 -7.084,0.683 -7.979,1.436 -7.102,1.84 -6.161,2.677 -5.358,2.561 -3.48,2.29 -1.668,1.562 0.171,1.019 0.113,0.679 0.057,0.34 0,0"
             style="fill:#1d1d1b;fill-opacity:1;fill-rule:nonzero;stroke:none"
             id="path76"
             inkscape:connector-curvature="0" /></g><g
           id="g78"
           transform="translate(456.2733,482.7898)"><path
             d="m 0,0 c -1.824,-1.212 -3.805,-0.825 -5.725,-0.167 -0.401,0.137 -0.862,1.09 -0.738,1.497 0.127,0.419 0.994,0.954 1.438,0.875 C -3.29,1.897 -1.594,1.367 0.117,0.92 Z"
             style="fill:#1d1d1b;fill-opacity:1;fill-rule:nonzero;stroke:none"
             id="path80"
             inkscape:connector-curvature="0" /></g><g
           id="g82"
           transform="translate(478.0887,447.5559)"><path
             d="M 0,0 C -0.002,-2.288 -0.94,-3.403 -3.166,-3.259 -3.437,-0.531 -2.749,0.22 0,0"
             style="fill:#1d1d1b;fill-opacity:1;fill-rule:nonzero;stroke:none"
             id="path84"
             inkscape:connector-curvature="0" /></g><g
           id="g86"
           transform="translate(377.2958,500.8083)"><path
             d="m 0,0 c 0,-0.792 0.301,-1.833 -0.088,-2.305 -0.365,-0.444 -1.459,-0.289 -2.838,-0.482 1.06,1.326 1.693,2.117 2.324,2.908 C -0.401,0.081 -0.201,0.041 0,0"
             style="fill:#1d1d1b;fill-opacity:1;fill-rule:nonzero;stroke:none"
             id="path88"
             inkscape:connector-curvature="0" /></g><g
           id="g90"
           transform="translate(539.9374,319.6057)"><path
             d="m 0,0 c 0,5.513 -0.017,11.027 0.003,16.54 0.028,8.07 6.007,14.56 14.051,15.009 3.977,0.222 7.987,0.195 11.967,-0.017 6.715,-0.358 12.834,-5.87 13.27,-12.594 0.421,-6.488 -0.015,-13.032 -0.096,-19.551 -0.005,-0.381 -0.083,-0.86 -0.318,-1.124 -2.376,-2.662 -2.249,-6.152 -3.289,-9.257 -1.012,-3.018 -3.242,-5.626 -4.917,-8.425 -0.487,-0.815 -1.096,-1.622 -1.324,-2.515 -1.048,-4.095 -3.865,-6.351 -8.132,-6.477 -1.983,-0.058 -3.969,-0.221 -5.936,-0.475 -0.663,-0.086 -1.553,-0.429 -1.855,-0.94 -1.212,-2.051 -2.701,-1.45 -4.292,-0.698 -5.911,2.791 -9.006,7.456 -9.113,13.984 C -0.072,-11.028 0,-5.513 0,0"
             style="fill:#1d1d1b;fill-opacity:1;fill-rule:nonzero;stroke:none"
             id="path92"
             inkscape:connector-curvature="0" /></g></g></g></g></svg>